<?xml version="1.0" encoding="UTF-8"?>
<svg version="1.1" xmlns="http://www.w3.org/2000/svg" width="512" height="512">
<path d="M0 0 C2.73267153 2.18385047 5.34572757 4.43910202 7.92578125 6.80078125 C8.72757812 7.53296875 9.529375 8.26515625 10.35546875 9.01953125 C15.68141632 14.11235653 19.91784831 19.62779129 23.92578125 25.80078125 C24.83457031 25.64222656 25.74335938 25.48367187 26.6796875 25.3203125 C49.69501229 22.06871203 71.46477105 25.66276076 90.80078125 38.74609375 C93.2890779 40.66674773 95.61499677 42.67046551 97.92578125 44.80078125 C98.77785156 45.57292969 99.62992187 46.34507812 100.5078125 47.140625 C112.44397685 58.46834919 123.07728779 75.67942578 124.08984375 92.53125 C124.31662016 95.37435422 124.56412834 97.28378648 125.92578125 99.80078125 C129.00245283 101.54255223 132.05134524 102.54821373 135.41796875 103.62109375 C149.70996511 108.4275335 161.54768585 120.87260593 168.234375 134.13671875 C175.79172154 150.17523009 178.56182862 169.70581731 173.08203125 186.95703125 C165.40592274 205.83610894 154.33920854 220.51798671 135.42578125 229.67578125 C123.3606176 234.53315534 112.00597098 235.31156738 99.17578125 235.48828125 C97.49606844 235.52153165 95.81637982 235.55602813 94.13671875 235.59179688 C90.06654198 235.67580394 85.99641161 235.74302144 81.92578125 235.80078125 C81.93955811 236.80020752 81.95333496 237.79963379 81.9675293 238.8293457 C81.97867765 240.17008197 81.98948283 241.51082113 82 242.8515625 C82.01377686 244.16036377 82.02755371 245.46916504 82.04174805 246.81762695 C81.46338238 266.68296543 71.9450952 282.69848904 57.9765625 296.22265625 C44.72892925 307.41783928 29.16973842 311.95103712 12.0549469 311.94795227 C10.9578447 311.95162896 9.8607425 311.95530565 8.73039478 311.95909375 C5.05276169 311.97011001 1.37515687 311.97397098 -2.30249023 311.9777832 C-4.93910387 311.98404947 -7.57571451 311.99068397 -10.21232605 311.99769592 C-18.12542431 312.01742231 -26.03852377 312.02752212 -33.95164046 312.03642371 C-37.68394321 312.04081328 -41.41624457 312.04617839 -45.14854622 312.05141258 C-57.56593118 312.06842177 -69.98331529 312.08291376 -82.40071011 312.09016132 C-85.62024881 312.09207102 -88.8397875 312.09399138 -92.05932617 312.09594727 C-93.25953366 312.09667288 -93.25953366 312.09667288 -94.48398776 312.09741315 C-107.43243619 312.10570535 -120.38079199 312.13102994 -133.32920002 312.16352794 C-146.64214034 312.19666668 -159.95503369 312.21461626 -173.26801544 312.21780556 C-180.73498886 312.21996447 -188.20182725 312.22862178 -195.6687603 312.25426674 C-202.03075874 312.27606718 -208.39258934 312.28397863 -214.7546209 312.27429996 C-217.99507164 312.26978191 -221.23510762 312.27371589 -224.4755249 312.2910614 C-248.81429118 312.41399368 -268.29300724 309.16669772 -286.44921875 291.48828125 C-299.71238396 277.50818819 -306.38913205 259.92170061 -306.03564453 240.70361328 C-304.90841967 220.34099771 -295.78251379 203.603044 -280.9921875 189.8671875 C-272.44801186 182.74968312 -260.37625004 175.80078125 -249.07421875 175.80078125 C-249.2343042 174.92711914 -249.39438965 174.05345703 -249.55932617 173.15332031 C-253.40219872 148.13182866 -248.31583579 122.57087447 -234.12890625 101.57421875 C-217.28124782 78.83308284 -195.01908717 63.62647708 -166.66015625 59.0703125 C-162.45856125 58.6323819 -158.29158878 58.6361117 -154.07421875 58.80078125 C-153.97367188 57.65222656 -153.873125 56.50367188 -153.76953125 55.3203125 C-153.18735538 50.70854652 -151.76368309 46.74683786 -149.94921875 42.48828125 C-149.63645996 41.74626465 -149.32370117 41.00424805 -149.00146484 40.23974609 C-138.11394071 15.11930822 -117.8914515 -2.43083394 -92.94921875 -12.7265625 C-62.68572388 -24.62113274 -26.18682948 -18.73339898 0 0 Z M-112.07421875 18.80078125 C-112.986875 19.62320313 -113.89953125 20.445625 -114.83984375 21.29296875 C-125.64552354 31.47865052 -134.51466466 44.92842483 -137.07421875 59.80078125 C-136.24567383 60.01057617 -136.24567383 60.01057617 -135.40039062 60.22460938 C-118.09317126 64.68405032 -103.0590931 70.40408738 -89.07421875 81.80078125 C-88.23503906 82.47625 -87.39585937 83.15171875 -86.53125 83.84765625 C-82.7449333 87.06455788 -79.42995624 90.01097721 -76.9296875 94.33203125 C-74.62288766 98.20827884 -72.68228692 100.99700225 -69.07421875 103.80078125 C-64.09631042 104.61762171 -59.16332838 103.44518872 -54.25390625 102.5859375 C-37.06067169 99.60122263 -18.00838943 106.42156262 -3.90234375 115.94140625 C12.88153052 128.21617997 23.98188652 144.48629436 28.92578125 164.80078125 C29.03522317 166.946352 29.13964088 169.09218678 29.23828125 171.23828125 C29.52572525 174.24278805 29.52572525 174.24278805 30.92578125 176.80078125 C34.45339452 178.87692864 37.95544269 180.06442691 41.828125 181.328125 C59.05334507 187.07794629 69.20909435 202.36740744 76.92578125 217.80078125 C82.09947282 217.90084521 87.27258172 217.97280393 92.44702148 218.02050781 C94.20135327 218.04042697 95.95562041 218.06757259 97.7097168 218.10253906 C114.58332784 218.43008846 129.26945324 216.09298945 142.4296875 204.38671875 C154.22925188 191.87856434 158.46633891 178.41464099 158.19921875 161.7109375 C157.68616361 148.48579821 151.76909242 137.19403283 142.36328125 128.05078125 C134.64877074 121.48047184 123.70883689 115.16790652 113.44140625 114.68359375 C100.28900842 116.08953972 89.67684144 121.45945254 81.265625 131.78125 C78.57742921 135.83313695 76.80326651 140.33250092 74.92578125 144.80078125 C72.30393251 150.54868041 72.30393251 150.54868041 68.92578125 152.80078125 C65.5911144 152.62213838 62.93975435 152.35683102 59.98828125 150.73828125 C58.13801661 147.36426925 58.25858093 144.46757966 58.92578125 140.80078125 C63.80245406 125.23367669 73.10809546 113.05316153 87.61328125 105.37890625 C93.84898701 102.36734381 100.19976858 100.40097382 106.92578125 98.80078125 C106.52210594 82.54367561 98.23609773 68.67297596 86.86328125 57.48828125 C80.27847687 51.8177765 72.88370968 48.14733437 64.92578125 44.80078125 C63.57419922 44.22650391 63.57419922 44.22650391 62.1953125 43.640625 C52.95216907 40.48120395 42.5609607 41.53913803 32.92578125 41.80078125 C34.18955606 47.5825639 34.18955606 47.5825639 35.55859375 53.33984375 C39.39651305 69.60531125 36.67506245 87.07056118 28.92578125 101.80078125 C25.68190179 106.58018562 25.68190179 106.58018562 22.890625 107.39453125 C17.52068704 107.14621042 17.52068704 107.14621042 14.98828125 105.67578125 C13.47122632 102.99862549 13.16572774 100.87645904 12.92578125 97.80078125 C14.0703125 94.50390625 14.0703125 94.50390625 15.73828125 91.05078125 C21.84175352 77.75080801 22.76031804 64.73864794 17.92578125 50.80078125 C14.12000289 41.72933601 9.37015608 34.19246584 2.92578125 26.80078125 C2.45785156 26.18976563 1.98992187 25.57875 1.5078125 24.94921875 C-9.40556148 10.93145393 -28.41688831 1.76459793 -45.73925781 -0.91796875 C-69.64475 -3.79742578 -94.19556084 2.06203777 -112.07421875 18.80078125 Z M-212.87890625 102.19140625 C-228.09266468 120.2746636 -234.3230587 141.05015157 -233.30371094 164.4296875 C-232.95558538 168.02649109 -232.07763384 171.3329787 -231.07421875 174.80078125 C-230.00107422 174.93033203 -230.00107422 174.93033203 -228.90625 175.0625 C-212.94119719 177.31371702 -199.40245922 183.69178184 -188.921875 196.1953125 C-181.23958704 207.02847544 -176.80899688 219.3229684 -176.67578125 232.64453125 C-177.18900221 235.42196235 -178.09186321 236.80048584 -180.07421875 238.80078125 C-182.01171875 239.26171875 -182.01171875 239.26171875 -184.07421875 239.17578125 C-184.75484375 239.16289062 -185.43546875 239.15 -186.13671875 239.13671875 C-188.07421875 238.80078125 -188.07421875 238.80078125 -191.07421875 236.80078125 C-191.79664609 233.97299424 -192.37511298 231.22873627 -192.88671875 228.36328125 C-194.42579685 220.6686538 -196.61180134 214.35422671 -201.07421875 207.80078125 C-201.46351563 207.21167969 -201.8528125 206.62257813 -202.25390625 206.015625 C-208.4877976 197.61061977 -218.92762093 193.25398916 -228.87890625 191.23046875 C-243.97924962 189.30711878 -257.45993343 193.8579462 -269.6328125 202.6484375 C-279.14988408 210.46431247 -285.42192727 221.81926481 -288.07421875 233.80078125 C-289.55209164 250.56495592 -286.28523749 263.6733753 -276.2265625 277.3046875 C-268.17211396 286.64550895 -257.02163082 292.234655 -245.07421875 294.80078125 C-243.53952616 294.89114745 -242.00146684 294.93156302 -240.46411991 294.93500233 C-239.53758958 294.93946017 -238.61105925 294.94391801 -237.65645224 294.94851094 C-236.13474225 294.9482344 -236.13474225 294.9482344 -234.58229065 294.94795227 C-233.50182038 294.95162896 -232.42135011 294.95530565 -231.30813831 294.95909375 C-227.67490319 294.97013758 -224.04169667 294.97397567 -220.40844727 294.9777832 C-217.80829273 294.98404743 -215.2081391 294.9906942 -212.60798645 294.99769592 C-204.7949173 295.01744798 -196.98184689 295.02752623 -189.16875902 295.03642371 C-185.48600407 295.04080982 -181.80325056 295.0461759 -178.12049675 295.05141258 C-165.87132472 295.06842575 -153.62215357 295.08291778 -141.37297153 295.09016132 C-138.19501812 295.09207111 -135.01706471 295.09399146 -131.83911133 295.09594727 C-131.04927984 295.09643101 -130.25944835 295.09691475 -129.44568258 295.09741315 C-116.66388498 295.10570538 -103.88218121 295.13102823 -91.10042454 295.16352794 C-77.96609912 295.19665065 -64.8318213 295.2146149 -51.69745392 295.21780556 C-44.32776474 295.21996615 -36.95821228 295.22864808 -29.58856392 295.25426674 C-22.65038032 295.27833018 -15.71244582 295.28176676 -8.77422905 295.27150536 C-6.23344989 295.27101068 -3.69265851 295.27731074 -1.1519165 295.2910614 C16.80764773 295.60637065 16.80764773 295.60637065 33.92578125 290.80078125 C34.57700675 290.5152303 35.22823225 290.22967936 35.89919186 289.93547535 C48.80756809 283.6896528 57.31997158 273.26787792 62.30078125 259.92578125 C66.94131207 246.4077132 65.64353846 232.63497631 59.80078125 219.67578125 C52.7765556 206.57370765 40.90166259 197.34669964 26.92578125 192.80078125 C18.05748214 190.40634049 9.08779225 192.91545519 1.11328125 197.11328125 C-10.21401847 204.00371447 -15.66954072 212.5525553 -19.80078125 225.078125 C-21.07421875 227.80078125 -21.07421875 227.80078125 -23 229.18359375 C-26.33875567 230.17704647 -28.74930904 229.70757481 -32.07421875 228.80078125 C-34.65526417 226.05842049 -35.07421875 224.49026918 -35.07421875 220.73828125 C-32.2833264 207.08072295 -23.86187477 193.90943168 -12.421875 185.95703125 C-4.1083103 180.80065472 4.48934354 178.11452319 13.92578125 175.80078125 C12.58402194 158.35791022 3.6151626 143.43897581 -9.42382812 132.13037109 C-22.07779174 121.93606845 -39.00538186 116.43149802 -55.26660156 118.01416016 C-57.20536526 118.25405553 -59.1402616 118.52480262 -61.07421875 118.80078125 C-60.64109375 120.15042969 -60.64109375 120.15042969 -60.19921875 121.52734375 C-54.05176678 142.18475132 -55.94705701 161.42963762 -65.70703125 180.5703125 C-67.07421875 182.80078125 -67.07421875 182.80078125 -69.07421875 183.80078125 C-72.91036832 184.15598028 -75.22051509 184.34802719 -78.51171875 182.23828125 C-80.76967903 178.71586322 -80.66922803 176.96584618 -80.07421875 172.80078125 C-78.95945012 170.00768936 -77.71439708 167.33096039 -76.36328125 164.64453125 C-71.07704615 152.98277624 -71.470288 138.75845649 -75.75 126.8203125 C-79.83646983 117.50219693 -85.39586856 109.44060598 -92.07421875 101.80078125 C-92.94433594 100.78757812 -92.94433594 100.78757812 -93.83203125 99.75390625 C-107.12276174 85.36999879 -126.76851764 76.32899074 -146.30078125 75.46484375 C-172.14672458 75.0286253 -194.64678319 83.24045397 -212.87890625 102.19140625 Z " fill="#000000" transform="translate(321.07421875,109.19921875)"/>
</svg>
