<?xml version="1.0" encoding="UTF-8"?>
<svg version="1.1" xmlns="http://www.w3.org/2000/svg" width="100" height="100">
<path d="M0 0 C9.19273945 6.57798888 16.28237622 15.9865463 18.3125 27.3125 C18.3125 29.41666667 18.3125 31.52083333 18.3125 33.625 C18.83599807 42.15180752 22.67442349 47.65569643 27.25585938 54.64941406 C32.25574885 62.51892587 33.28839238 70.09711119 32.3125 79.3125 C30.5830513 85.14938936 26.12245603 88.79231041 21.3125 92.3125 C15.4934392 94.25218693 8.84577518 94.07726232 3 92.3125 C-2.16029832 88.47227799 -6.90774077 83.64053283 -8.6875 77.3125 C-9.88826172 77.79589844 -9.88826172 77.79589844 -11.11328125 78.2890625 C-23.16651533 81.74037106 -36.20036284 79.89750513 -47.06640625 74.02734375 C-57.88730626 67.45424205 -63.74939485 58.12681545 -67.6875 46.3125 C-69.07675998 32.00663929 -67.69335369 19.56458497 -58.3359375 8.1171875 C-42.91206766 -8.76866053 -19.47636608 -11.8508736 0 0 Z M-53.6875 10.3125 C-61.8366024 20.81578754 -63.95001259 31.21806315 -62.6875 44.3125 C-60.82531304 53.76486673 -55.5463166 61.5427285 -47.96875 67.421875 C-40.294632 72.52389851 -33.41313298 74.69063408 -24.25 74.625 C-23.13057007 74.62306641 -23.13057007 74.62306641 -21.98852539 74.62109375 C-16.64766639 74.5275688 -12.49559932 73.76769965 -7.6875 71.3125 C-7.6875 70.3225 -7.6875 69.3325 -7.6875 68.3125 C-8.83347656 68.63605469 -9.97945312 68.95960937 -11.16015625 69.29296875 C-20.52651866 71.62374012 -33.06355209 72.09224233 -41.6875 67.3125 C-50.14881873 62.06506032 -56.12364109 55.03428175 -58.6875 45.3125 C-59.69057411 36.07953201 -59.99093621 26.25939351 -54.6875 18.3125 C-54.26339844 17.62027344 -53.83929688 16.92804687 -53.40234375 16.21484375 C-48.64059225 9.11864026 -41.94686323 4.48341985 -33.6875 2.3125 C-24.45398036 1.31036069 -14.63500285 1.00865714 -6.6875 6.3125 C-5.99527344 6.73660156 -5.30304687 7.16070312 -4.58984375 7.59765625 C2.36083473 12.26175639 7.39174384 19.10563276 9.3125 27.3125 C9.7253114 29.978776 10.03465601 32.62667481 10.3125 35.3125 C10.8075 34.3225 10.8075 34.3225 11.3125 33.3125 C11.9725 33.3125 12.6325 33.3125 13.3125 33.3125 C12.85665587 23.89172132 9.59981817 15.98158467 3.17578125 8.9765625 C-6.40199786 0.42282267 -16.00642442 -2.33006351 -28.6796875 -1.9921875 C-38.73241892 -1.4192339 -46.71364079 3.19631713 -53.6875 10.3125 Z M-49.6875 18.3125 C-54.91696376 26.25963783 -55.39671331 34.03193726 -54.6875 43.3125 C-52.69237346 51.43723219 -47.10697666 57.66066096 -40.625 62.6875 C-32.77317123 67.03106485 -23.64012545 67.96222763 -14.953125 65.5546875 C-7.52559751 62.38926471 -3.1818071 58.15997699 0.5625 51.125 C4.2565133 44.3684867 4.2565133 44.3684867 5.3125 43.3125 C6.23570078 32.29462838 5.03790538 24.65007001 -1.9375 16.0625 C-7.26795546 10.31936411 -12.97351286 6.61438095 -20.859375 6.109375 C-34.01376488 5.93704675 -40.66362049 8.42616121 -49.6875 18.3125 Z M11.3125 42.3125 C9.7708507 44.38721467 8.37151359 46.44088361 7 48.625 C6.59918213 49.26219971 6.19836426 49.89939941 5.78540039 50.5559082 C0.29804873 59.42777404 -4.53216191 67.52036584 -2.6875 78.3125 C-0.39051121 83.17151474 2.47134024 85.98157123 7.3125 88.3125 C12.30697589 89.1096639 16.10979761 88.89157893 20.6875 86.6875 C25.10971645 82.68644702 27.53895074 79.45831648 28.0625 73.4375 C27.69166362 62.9970296 20.0618367 50.05059303 13.3125 42.3125 C12.6525 42.3125 11.9925 42.3125 11.3125 42.3125 Z " fill="#000000" transform="translate(67.6875,6.6875)"/>
<path d="M0 0 C0.83660156 0.45246094 1.67320313 0.90492187 2.53515625 1.37109375 C5.01892511 2.60288156 7.2089789 3.13936036 9.9375 3.5625 C9.710625 4.243125 9.48375 4.92375 9.25 5.625 C8.66342803 8.66226974 8.66342803 8.66226974 10.375 11.5 C13.38513892 17.91229594 13.15707285 26.02573874 10.8828125 32.62109375 C9.20728492 36.03659228 7.63432506 38.86567494 4.9375 41.5625 C2.3125 41.6875 2.3125 41.6875 -0.0625 41.5625 C0.27828205 37.92749146 1.38623355 35.86015291 3.5 33 C6.9133567 27.84553627 6.557633 22.54235394 5.9375 16.5625 C5.4425 15.0775 5.4425 15.0775 4.9375 13.5625 C1.59776243 15.01196105 -0.58554659 16.84422388 -3.125 19.4375 C-4.13240234 20.45457031 -4.13240234 20.45457031 -5.16015625 21.4921875 C-7.10181685 23.51191124 -7.10181685 23.51191124 -8.6171875 25.796875 C-10.0625 27.5625 -10.0625 27.5625 -13.125 27.9375 C-16.0625 27.5625 -16.0625 27.5625 -18.0625 25.5625 C-18.5 22.625 -18.5 22.625 -18.0625 19.5625 C-16.43708835 18.4967539 -14.75937085 17.51034339 -13.0625 16.5625 C-10.93871468 15.01962459 -8.83725924 13.46517198 -6.75 11.875 C-6.20021484 11.45927734 -5.65042969 11.04355469 -5.08398438 10.61523438 C-3.74182075 9.59985842 -2.40192378 8.58148747 -1.0625 7.5625 C-3.73594862 4.63443723 -5.71198563 3.68294061 -9.734375 3.32421875 C-16.50283907 3.16101974 -20.655111 3.36901465 -26.0625 7.5625 C-30.5955293 12.0955293 -32.22482143 15.86146288 -32.4375 22.25 C-32.41802135 27.62610808 -31.40180255 30.59579541 -28.2421875 34.87109375 C-26.74887604 37.01216614 -26.30443202 38.98189181 -26.0625 41.5625 C-28.359375 41.83203125 -28.359375 41.83203125 -31.0625 41.5625 C-32.828125 39.69921875 -32.828125 39.69921875 -34.3125 37.25 C-35.06273437 36.04923828 -35.06273437 36.04923828 -35.828125 34.82421875 C-39.4130715 28.25559842 -39.24460934 19.71093044 -37.2265625 12.62890625 C-34.09938389 5.73442187 -29.47034448 1.69271247 -22.7265625 -1.56640625 C-15.22361659 -4.01971554 -7.07604647 -3.32199739 0 0 Z " fill="#000000" transform="translate(56.0625,20.4375)"/>
<path d="M0 0 C0.99 0 1.98 0 3 0 C4.06290249 2.71772073 4.08471583 3.78306103 3.00390625 6.55078125 C2.52824219 7.46214844 2.05257812 8.37351562 1.5625 9.3125 C-0.66290599 13.9425808 -1.7423271 16.90975704 -1 22 C-0.34 22.99 0.32 23.98 1 25 C0.625 27.1875 0.625 27.1875 0 29 C-2.63543148 28.63649221 -3.7706879 28.24832823 -5.6015625 26.265625 C-8.19023964 22.07167879 -7.76513371 17.74622005 -7 13 C-3.13793103 3.13793103 -3.13793103 3.13793103 0 0 Z " fill="#000000" transform="translate(75,61)"/>
</svg>
