<?xml version="1.0" encoding="UTF-8"?>
<svg version="1.1" xmlns="http://www.w3.org/2000/svg" width="100" height="100">
<path d="M0 0 C4.8404001 2.60960701 8.06650639 6.09014417 9.796875 11.28125 C10.45602254 18.67234695 10.59143772 24.40791067 5.796875 30.28125 C0.56346838 35.48987154 -5.32187701 35.8223126 -12.3496933 35.86148357 C-14.77004075 35.84730405 -17.18931593 35.8088371 -19.609375 35.76953125 C-21.30186921 35.76019382 -22.99437703 35.7530821 -24.68688965 35.74809265 C-29.11936429 35.7290958 -33.5510063 35.68005958 -37.9831543 35.62457275 C-42.51469665 35.57322124 -47.04637491 35.55054483 -51.578125 35.52539062 C-60.45348876 35.47193251 -69.32823736 35.38670984 -78.203125 35.28125 C-78.203125 33.96125 -78.203125 32.64125 -78.203125 31.28125 C-76.93644737 31.27245064 -76.93644737 31.27245064 -75.6441803 31.26347351 C-67.65593465 31.20538413 -59.66796379 31.13321524 -51.679986 31.04553509 C-47.57403112 31.00095446 -43.46817264 30.96167189 -39.36206055 30.93481445 C-35.39369785 30.90865778 -31.42570865 30.86816987 -27.45757866 30.81806374 C-25.94950471 30.80147809 -24.44136628 30.78991241 -22.93321419 30.78363609 C-9.47559458 30.93140476 -9.47559458 30.93140476 2.359375 25.21875 C4.47872343 20.88790756 4.69526574 17.00723825 3.796875 12.28125 C2.10062649 9.16415864 0.01829325 6.89195912 -3.203125 5.28125 C-7.72610366 4.54143193 -11.64772706 4.21565912 -15.53515625 6.87890625 C-16.90430914 8.15661293 -18.23363639 9.47885405 -19.51171875 10.84765625 C-20.06988281 11.32074219 -20.62804688 11.79382812 -21.203125 12.28125 C-22.193125 11.95125 -23.183125 11.62125 -24.203125 11.28125 C-24.06609857 8.33518171 -23.90436945 6.07965482 -21.90625 3.8046875 C-15.77374057 -1.38669424 -7.6903097 -2.50889536 0 0 Z " fill="#000000" transform="translate(84.203125,16.71875)"/>
<path d="M0 0 C7.01077881 -0.10157378 14.02136725 -0.17153861 21.03271484 -0.21972656 C23.41690157 -0.23981893 25.80103915 -0.26709781 28.18505859 -0.30175781 C31.61568338 -0.35037859 35.04565555 -0.37299312 38.4765625 -0.390625 C39.53928375 -0.41127014 40.602005 -0.43191528 41.69692993 -0.45318604 C47.83112188 -0.45503824 51.31184756 -0.05558652 56 4 C56.78375 4.66 57.5675 5.32 58.375 6 C60.98970891 10.8271549 60.71924257 15.63837357 60 21 C57.81356301 25.61581142 55.50400196 27.72864085 51 30 C45.4242879 30.83297987 40.50445332 30.70034896 35.375 28.3125 C32.93307411 25.93483532 31.90552001 24.25987205 31 21 C32.32 20.34 33.64 19.68 35 19 C35.825 19.825 36.65 20.65 37.5 21.5 C40.01096743 23.57763263 41.79486464 24.4389866 45.0625 24.625 C49.04062615 24.27437372 49.04062615 24.27437372 52 22 C54.22152203 18.66771696 54.7480039 16.85911608 54.48828125 12.93359375 C53.63139654 9.54033032 51.74890261 8.01586192 49 6 C44.11903482 4.54521466 38.9380289 4.77372443 33.88671875 4.68359375 C32.91716751 4.66281265 31.94761627 4.64203156 30.94868469 4.62062073 C27.86169293 4.55541059 24.77461848 4.4963732 21.6875 4.4375 C19.59048636 4.39428763 17.49348097 4.35067248 15.39648438 4.30664062 C10.26440693 4.19975849 5.13224659 4.09841104 0 4 C0 2.68 0 1.36 0 0 Z " fill="#000000" transform="translate(6,62)"/>
<path d="M0 0 C4.62139843 2.18908347 6.71454146 4.50009999 9 9 C9.85128275 13.84373283 10.15294347 18.83589899 7.79296875 23.265625 C5.21951628 26.3667981 2.76178666 28.4962321 -1 30 C-4.20800781 30.22705078 -4.20800781 30.22705078 -7.953125 30.1953125 C-8.61334656 30.1924826 -9.27356812 30.18965271 -9.95379639 30.18673706 C-12.05271897 30.17558415 -14.15120742 30.15048946 -16.25 30.125 C-17.67707715 30.11496384 -19.10416102 30.1058391 -20.53125 30.09765625 C-24.02097328 30.07566111 -27.51044423 30.04116536 -31 30 C-31 28.68 -31 27.36 -31 26 C-30.30962646 25.98018066 -29.61925293 25.96036133 -28.90795898 25.93994141 C-25.75078529 25.84411707 -22.59422178 25.73467186 -19.4375 25.625 C-18.35146484 25.5940625 -17.26542969 25.563125 -16.14648438 25.53125 C-6.49799425 25.43951368 -6.49799425 25.43951368 1.9375 21.375 C3.49651299 17.89014744 3.76122544 14.69633508 3 11 C1.16666667 7.83333333 1.16666667 7.83333333 -2 6 C-5.99976699 5.36511635 -8.37749889 5.00523188 -11.84765625 7.1328125 C-13.70124839 8.62289928 -13.70124839 8.62289928 -16 11 C-17.32 10.34 -18.64 9.68 -20 9 C-15.99852971 -0.47716648 -9.52123251 -1.16112592 0 0 Z " fill="#000000" transform="translate(37,8)"/>
</svg>
